<?xml version="1.0" encoding="UTF-8" standalone="no"?>
<!-- Created with Inkscape (http://www.inkscape.org/) -->

<svg
   xmlns:dc="http://purl.org/dc/elements/1.1/"
   xmlns:cc="http://creativecommons.org/ns#"
   xmlns:rdf="http://www.w3.org/1999/02/22-rdf-syntax-ns#"
   xmlns:svg="http://www.w3.org/2000/svg"
   xmlns="http://www.w3.org/2000/svg"
   xmlns:sodipodi="http://sodipodi.sourceforge.net/DTD/sodipodi-0.dtd"
   xmlns:inkscape="http://www.inkscape.org/namespaces/inkscape"
   width="204.22141mm"
   height="80.24482mm"
   viewBox="0 0 723.61915 284.33204"
   id="svg2"
   version="1.1"
   inkscape:version="0.91 r13725"
   sodipodi:docname="logo.svg">
  <defs
     id="defs4" />
  <sodipodi:namedview
     id="base"
     pagecolor="#ffffff"
     bordercolor="#666666"
     borderopacity="0"
     inkscape:pageopacity="0.0"
     inkscape:pageshadow="2"
     inkscape:zoom="1.3681207"
     inkscape:cx="397.16394"
     inkscape:cy="77.521107"
     inkscape:document-units="px"
     inkscape:current-layer="layer1"
     showgrid="false"
     inkscape:object-paths="true"
     inkscape:snap-nodes="false"
     inkscape:window-width="1393"
     inkscape:window-height="855"
     inkscape:window-x="47"
     inkscape:window-y="1"
     inkscape:window-maximized="1"
     fit-margin-top="0"
     fit-margin-left="0"
     fit-margin-right="0"
     fit-margin-bottom="0" />
  <metadata
     id="metadata7">
    <rdf:RDF>
      <cc:Work
         rdf:about="">
        <dc:format>image/svg+xml</dc:format>
        <dc:type
           rdf:resource="http://purl.org/dc/dcmitype/StillImage" />
        <dc:title></dc:title>
      </cc:Work>
    </rdf:RDF>
  </metadata>
  <g
     inkscape:label="Layer 1"
     inkscape:groupmode="layer"
     id="layer1"
     transform="translate(-5.1171801,-181.82421)">
    <path
       style="fill:#000000"
       d=""
       id="path3349"
       inkscape:connector-curvature="0" />
    <path
       style="fill:#000000"
       d=""
       id="path3347"
       inkscape:connector-curvature="0" />
    <path
       style="fill:#a0ca7c;fill-opacity:1;fill-rule:evenodd;stroke:#000000;stroke-width:0;stroke-linecap:butt;stroke-linejoin:miter;stroke-miterlimit:4;stroke-dasharray:none;stroke-opacity:1"
       d="M 119.87305,181.82422 6.578125,306.08398 24.474609,326.12695 c -0.02439,0.34731 -0.325178,0.80546 -0.957031,1.45899 l -18.4003905,14.3125 114.0234325,124.25781 221.7754,-85.46094 81.47851,-31.39843 306.3418,116.85937 0,-44.58594 -244.28125,-96.18945 243.55078,-93.85352 0.73047,-47.50976 -306.72461,116.77734 -302.13867,-118.9707 z m 1.19336,53.39062 c 1.39498,0.10476 5.34986,1.34964 14.7207,4.75 l 222.7832,84.98438 -235.51953,89.66797 c -0.86695,-0.20987 -2.3164,-1.35565 -6.05859,-5.20508 l -75.330081,-82.86328 78.994141,-91.3125 c 0.11942,-0.015 0.2296,-0.0351 0.41016,-0.0215 z"
       id="path3351"
       inkscape:connector-curvature="0" />
    <path
       style="fill:#a0ca7c;fill-opacity:1"
       d=""
       id="path4163"
       inkscape:connector-curvature="0" />
    <path
       style="fill:#a0ca7c;fill-opacity:1"
       d=""
       id="path4183"
       inkscape:connector-curvature="0" />
    <path
       style="fill:#a0ca7c;fill-opacity:1"
       d=""
       id="path4185"
       inkscape:connector-curvature="0" />
    <path
       style="fill:#a0ca7c;fill-opacity:1;stroke-width:0;stroke-miterlimit:4;stroke-dasharray:none"
       d="m 390.9093,337.00955 c -16.98821,-6.49403 -30.63832,-12.02859 -30.33359,-12.299 1.32281,-1.17382 61.2011,-23.42858 62.27851,-23.14683 2.81575,0.73634 59.97396,23.48738 59.96044,23.86644 -0.014,0.39368 -59.86959,23.51282 -60.65225,23.42686 -0.201,-0.0221 -14.26491,-5.35344 -31.25311,-11.84747 z"
       id="path4201"
       inkscape:connector-curvature="0" />
    <path
       style="fill:#a0ca7c;fill-opacity:1;stroke-width:0;stroke-miterlimit:4;stroke-dasharray:none"
       d="m 407.17835,342.96703 c -26.86205,-10.29689 -44.95217,-17.61952 -44.95217,-18.19599 0,-0.32651 0.57561,-0.8233 1.27912,-1.10398 5.26803,-2.10175 36.4485,-13.78298 46.23131,-17.31976 8.13107,-2.93963 12.70146,-4.23255 14.02818,-3.96844 2.85724,0.56878 57.6032,22.41763 57.60148,22.98847 -10e-4,0.55673 -0.44438,0.73517 -32.97446,13.2909 -13.51362,5.21589 -25.35468,9.45389 -26.31347,9.41777 -0.95879,-0.0361 -7.66378,-2.33515 -14.89999,-5.10897 z"
       id="path4203"
       inkscape:connector-curvature="0" />
    <ellipse
       style="fill:#a0ca7c;fill-opacity:1;stroke-width:0;stroke-miterlimit:4;stroke-dasharray:none"
       id="path4210"
       cx="131.20187"
       cy="284.52057"
       rx="19.369635"
       ry="18.638706" />
  </g>
</svg>
